<svg width="272" height="272" viewBox="0 0 272 272" fill="none" xmlns="http://www.w3.org/2000/svg">
<path d="M0 256C0 264.837 7.16344 272 16 272C24.8366 272 32 264.837 32 256H0ZM16 16L29.3128 7.1248C25.4018 1.25828 18.1116 -1.35665 11.3635 0.686527C4.61531 2.7297 0 8.94932 0 16L16 16ZM56 76L42.6872 84.8752C45.6546 89.3264 50.6503 92 56 92C61.3496 92 66.3453 89.3264 69.3128 84.8752L56 76ZM96 16H112C112 8.94932 107.385 2.7297 100.637 0.686527C93.8884 -1.35665 86.5982 1.25828 82.6872 7.1248L96 16ZM80 256C80 264.837 87.1634 272 96 272C104.837 272 112 264.837 112 256H80ZM189.313 24.8752C194.214 17.5227 192.228 7.58883 184.875 2.68719C177.523 -2.21444 167.589 -0.227662 162.687 7.1248L189.313 24.8752ZM176 256L162.687 264.875C166.329 270.338 172.938 273.022 179.358 271.644C185.777 270.266 190.703 265.106 191.782 258.63L176 256ZM216 16L231.782 13.3696C230.496 5.65461 223.821 0 216 0C208.179 0 201.504 5.65461 200.218 13.3696L216 16ZM240.218 258.63C241.67 267.347 249.914 273.235 258.63 271.782C267.347 270.33 273.235 262.086 271.782 253.37L240.218 258.63ZM32 256V16H0V256H32ZM2.68719 24.8752L42.6872 84.8752L69.3128 67.1248L29.3128 7.1248L2.68719 24.8752ZM69.3128 84.8752L109.313 24.8752L82.6872 7.1248L42.6872 67.1248L69.3128 84.8752ZM112 256V136H80V256H112ZM112 136V16H80V136H112ZM109.313 144.875L189.313 24.8752L162.687 7.1248L82.6872 127.125L109.313 144.875ZM82.6872 144.875L162.687 264.875L189.313 247.125L109.313 127.125L82.6872 144.875ZM191.782 258.63L201.782 198.63L170.218 193.37L160.218 253.37L191.782 258.63ZM201.782 198.63L231.782 18.6304L200.218 13.3696L170.218 193.37L201.782 198.63ZM200.218 18.6304L230.218 198.63L261.782 193.37L231.782 13.3696L200.218 18.6304ZM230.218 198.63L240.218 258.63L271.782 253.37L261.782 193.37L230.218 198.63ZM186 212H246V180H186V212Z" fill="white"/>
</svg>
